<?xml version="1.0" encoding="UTF-8"?>
<svg xmlns="http://www.w3.org/2000/svg" width="64" height="64" viewBox="0 0 24 24" fill="none" stroke="#6366f1" stroke-width="2" stroke-linecap="round" stroke-linejoin="round" role="img">
<path d="M12 18V5" key="adv99a" /><path d="M15 13a4.17 4.17 0 0 1-3-4 4.17 4.17 0 0 1-3 4" key="1e3is1" /><path d="M17.598 6.5A3 3 0 1 0 12 5a3 3 0 1 0-5.598 1.5" key="1gqd8o" /><path d="M17.997 5.125a4 4 0 0 1 2.526 5.77" key="iwvgf7" /><path d="M18 18a4 4 0 0 0 2-7.464" key="efp6ie" /><path d="M19.967 17.483A4 4 0 1 1 12 18a4 4 0 1 1-7.967-.517" key="1gq6am" /><path d="M6 18a4 4 0 0 1-2-7.464" key="k1g0md" /><path d="M6.003 5.125a4 4 0 0 0-2.526 5.77" key="q97ue3" />
</svg>
